<svg width="80" height="80" fill="none" xmlns="http://www.w3.org/2000/svg"><path fill-rule="evenodd" clip-rule="evenodd" d="M40 80c22.091 0 40-17.909 40-40S62.091 0 40 0 0 17.909 0 40s17.909 40 40 40zM21 23a2 2 0 00-2 2v32a2 2 0 002 2h38a2 2 0 002-2V25a2 2 0 00-2-2H21zm15.414 22.06a1 1 0 001.182.014l9.37-6.693a1 1 0 011.096-.044l6.453 3.872a1 1 0 01.485.857V52a1 1 0 01-1 1H26a1 1 0 01-1-1v-6a1 1 0 01.4-.8l5-3.75a1 1 0 011.2 0l4.814 3.61zM37 33.5a4.5 4.5 0 11-9 0 4.5 4.5 0 019 0z" fill="#fff"/></svg>