<svg fill="none" height="80" width="80" xmlns="http://www.w3.org/2000/svg"><path clip-rule="evenodd" d="M40 80c22.091 0 40-17.909 40-40S62.091 0 40 0 0 17.909 0 40s17.909 40 40 40zM27.422 18a2 2 0 011.414.586l4.453 4.453a2 2 0 001.414.586H59.46a2 2 0 011.944 2.47l-4.466 18.5a2 2 0 01-1.944 1.53H26.116a2 2 0 01-1.996-2.129l1.25-19.306a1 1 0 00-.998-1.065H19a2 2 0 01-2-2V20a2 2 0 012-2zm6.453 39.375a5.625 5.625 0 11-11.25 0 5.625 5.625 0 0111.25 0zm22.5 0a5.625 5.625 0 11-11.25 0 5.625 5.625 0 0111.25 0z" fill="#fff" fill-rule="evenodd"/></svg>